# xmcd
#
# Track frame offsets: 
#        150
#        15045
#        39895
#        65832
#        85114
#        102141
#        123032
#        142898
#
# Disc length: 2154 seconds
#
# Revision: 0
# Processed by: cddbd v1.5PL3 Copyright (c) Steve Scherf et al.
# Submitted via: ExactAudioCopy v0.95a5
#
DISCID=51086808
DTITLE=Drew Womack - The EP
DYEAR=2004
DGENRE=Country
TTITLE0=Premium Gasoline
TTITLE1=Fastest Way to Texas
TTITLE2=Leaving October
TTITLE3=Hey Daisy
TTITLE4=Power of a Whisper
TTITLE5=Deep Water Faith
TTITLE6=Carry Me
TTITLE7=Way Too Much of a Good (Thang)
EXTD=
EXTT0=
EXTT1=
EXTT2=
EXTT3=
EXTT4=
EXTT5=
EXTT6=
EXTT7=
PLAYORDER=
